<svg width="1274" height="360" viewBox="0 0 1274 360" fill="none" xmlns="http://www.w3.org/2000/svg">
<path d="M586.544 105.536C580.208 102.08 570.32 100.352 556.88 100.352C543.632 100.352 532.784 103.904 524.336 111.008C522.032 114.656 520.88 119.936 520.88 126.848C520.88 141.632 528.752 152 544.496 157.952L581.936 172.352C606.512 181.76 618.8 198.752 618.8 223.328C618.8 240.032 612.944 252.704 601.232 261.344C589.52 269.984 574.352 274.304 555.728 274.304C530 274.304 508.784 266.432 492.08 250.688L510.512 219.296L517.424 221.312L521.744 248.96C528.848 253.952 539.12 256.448 552.56 256.448C581.168 256.448 595.472 246.752 595.472 227.36C595.472 219.488 592.976 213.056 587.984 208.064C582.992 203.072 575.216 198.56 564.656 194.528L531.536 181.856C509.072 173.216 497.84 157.664 497.84 135.2C497.84 118.304 503.792 105.344 515.696 96.32C527.6 87.104 542.768 82.496 561.2 82.496C583.664 82.496 601.712 90.368 615.344 106.112L594.896 134.624L587.984 132.608L586.544 105.536ZM753.381 158.6V260.6L770.581 267.6L769.381 272H720.381L719.181 267.6L730.181 263C732.581 262.067 734.181 261.067 734.981 260C735.915 258.933 736.381 257.4 736.381 255.4V211.2H671.781V260.6L688.981 267.6L687.781 272H638.781L637.581 267.6L648.581 263C650.981 262.067 652.581 261.067 653.381 260C654.315 258.933 654.781 257.4 654.781 255.4V153.4L637.581 146.4L638.781 142H687.781L688.981 146.4L677.981 151C675.581 151.933 673.915 152.933 672.981 154C672.181 155.067 671.781 156.6 671.781 158.6V199.8H736.381V153.4L719.181 146.4L720.381 142H769.381L770.581 146.4L759.581 151C757.181 151.933 755.515 152.933 754.581 154C753.781 155.067 753.381 156.6 753.381 158.6ZM818.461 158.4V201.6C831.128 201.6 843.994 201 857.061 199.8L863.461 199.2L865.661 201.6L863.461 212.8C847.594 211.867 832.594 211.4 818.461 211.4V261.6L861.861 260.8L871.461 243.2L877.461 244.6V272H785.461L784.261 267.6L795.261 263C797.661 262.067 799.261 261.067 800.061 260C800.994 258.933 801.461 257.4 801.461 255.4V153.4L784.261 146.4L785.461 142H876.461V169.4L870.461 170.8L860.861 153.2L823.861 152.4C820.261 152.4 818.461 154.4 818.461 158.4ZM1012.05 158.6V272L997.645 273.6L923.645 168.4V260.6L940.845 267.6L939.645 272H894.445L893.245 267.6L904.245 263C906.645 262.067 908.245 261.067 909.045 260C909.979 258.933 910.445 257.4 910.445 255.4V153.4L893.245 146.4L894.445 142H927.845L998.645 242.8V243.2L998.845 242.8V153.4L981.645 146.4L982.845 142H1028.05L1029.25 146.4L1018.25 151C1015.85 151.933 1014.18 152.933 1013.25 154C1012.45 155.067 1012.05 156.6 1012.05 158.6ZM1086.09 255.4V212.4L1046.49 152.8L1032.49 146.4L1033.69 142H1081.89L1083.09 146.4L1073.69 151C1070.76 152.333 1069.29 153.933 1069.29 155.8C1069.29 156.733 1069.63 157.667 1070.29 158.6L1097.49 199L1127.09 153.4L1109.89 146.4L1111.09 142H1155.89L1157.09 146.4L1146.09 151C1143.56 152.067 1141.69 153.267 1140.49 154.6C1139.43 155.8 1138.43 157.133 1137.49 158.6L1103.09 211.8V260.6L1120.29 267.6L1119.09 272H1070.09L1068.89 267.6L1079.89 263C1082.29 262.067 1083.89 261.067 1084.69 260C1085.63 258.933 1086.09 257.4 1086.09 255.4ZM1237.07 258C1237.07 257.2 1236.87 256.333 1236.47 255.4L1227.47 230H1181.07L1170.47 260.6L1187.67 267.6L1186.47 272H1142.27L1141.07 267.6L1152.07 263C1154.34 262.067 1155.74 261.2 1156.27 260.4C1156.94 259.6 1157.74 257.933 1158.67 255.4L1198.67 144L1210.87 140.4L1214.87 142L1257.87 261.2L1273.47 267.6L1272.27 272H1223.27L1222.07 267.6L1233.07 263C1235.74 261.933 1237.07 260.267 1237.07 258ZM1204.07 163.6L1184.47 219.8H1223.87L1204.07 163.6Z" fill="black"/>
<rect x="7.5" y="7.50006" width="345" height="345" fill="white" stroke="black" stroke-width="15"/>
<line x1="187.5" x2="187.5" y2="180" stroke="black" stroke-width="15"/>
<line x1="180" y1="172.5" x2="360" y2="172.5" stroke="black" stroke-width="15"/>
<line x1="8.6967" y1="354.433" x2="189.433" y2="173.697" stroke="black" stroke-width="15"/>
</svg>
