<svg width="1327" height="392" viewBox="0 0 1327 392" fill="none" xmlns="http://www.w3.org/2000/svg">
<path d="M553.136 310.88C534.32 310.88 520.016 307.136 510.224 299.648C500.624 292.16 495.824 282.368 495.824 270.272C495.824 264.512 497.648 259.904 501.296 256.448C504.944 252.8 510.032 250.976 516.56 250.976C516.944 258.848 518.48 266.336 521.168 273.44C523.856 280.352 527.984 286.016 533.552 290.432C539.12 294.656 546.416 296.768 555.44 296.768C568.304 296.768 578.384 293.696 585.68 287.552C592.976 281.216 596.624 272.192 596.624 260.48C596.624 253.376 595.184 247.424 592.304 242.624C589.616 237.632 585.008 233.024 578.48 228.8C572.144 224.576 563.312 220.16 551.984 215.552C534.128 208.256 520.784 199.712 511.952 189.92C503.312 180.128 498.992 167.36 498.992 151.616C498.992 140.672 501.68 131.36 507.056 123.68C512.624 115.808 520.112 109.856 529.52 105.824C539.12 101.6 549.968 99.488 562.064 99.488C579.152 99.488 592.4 102.752 601.808 109.28C611.216 115.808 615.92 123.296 615.92 131.744C615.92 137.888 613.808 142.592 609.584 145.856C605.552 148.928 600.08 150.464 593.168 150.464C593.168 144.512 592.112 138.752 590 133.184C588.08 127.616 584.72 123.008 579.92 119.36C575.312 115.712 568.976 113.888 560.912 113.888C549.776 113.888 541.136 116.864 534.992 122.816C528.848 128.768 525.776 136.736 525.776 146.72C525.776 154.4 527.12 160.928 529.808 166.304C532.688 171.488 537.392 176.192 543.92 180.416C550.448 184.448 559.28 188.768 570.416 193.376C587.312 200.288 600.464 208.256 609.872 217.28C619.28 226.304 623.984 238.208 623.984 252.992C623.984 271.232 617.552 285.44 604.688 295.616C592.016 305.792 574.832 310.88 553.136 310.88ZM646.256 308V299.6H648.856C653.39 299.6 657.256 298.8 660.456 297.2C663.656 295.467 665.256 291.467 665.256 285.2V187.2C665.256 181.333 663.59 177.6 660.256 176C657.056 174.4 653.256 173.6 648.856 173.6H646.256V165.2H704.456V173.6H701.856C697.323 173.6 693.456 174.467 690.256 176.2C687.056 177.8 685.456 181.733 685.456 188V228.4H750.456V188C750.456 181.733 748.856 177.8 745.656 176.2C742.456 174.467 738.59 173.6 734.056 173.6H731.456V165.2H789.656V173.6H787.056C782.523 173.6 778.656 174.467 775.456 176.2C772.256 177.8 770.656 181.733 770.656 188V286.2C770.656 292.067 772.256 295.8 775.456 297.4C778.79 298.867 782.656 299.6 787.056 299.6H789.656V308H731.456V299.6H734.056C738.59 299.6 742.456 298.8 745.656 297.2C748.856 295.467 750.456 291.467 750.456 285.2V238.4H685.456V285.2C685.456 291.467 687.056 295.467 690.256 297.2C693.456 298.8 697.323 299.6 701.856 299.6H704.456V308H646.256ZM804.85 308V299.6H807.45C811.85 299.6 815.65 298.867 818.85 297.4C822.183 295.8 823.85 292.067 823.85 286.2V188C823.85 181.733 822.25 177.8 819.05 176.2C815.85 174.467 811.983 173.6 807.45 173.6H804.85V165.2H905.65L906.65 200.2H896.25L895.25 191.6C894.717 187.2 893.117 183.4 890.45 180.2C887.917 176.867 883.65 175.2 877.65 175.2H844.05V228.4H892.25V238.2H844.05V298H882.65C888.917 298 893.45 296.4 896.25 293.2C899.183 289.867 900.983 286 901.65 281.6L903.05 273H913.45L912.05 308H804.85ZM929.459 308V299.6H932.059C936.593 299.6 940.459 298.8 943.659 297.2C946.859 295.467 948.459 291.467 948.459 285.2V187.2C948.459 181.333 946.793 177.6 943.459 176C940.259 174.4 936.459 173.6 932.059 173.6H929.459V165.2H966.059L1037.66 275.8V187.2C1037.66 181.333 1035.99 177.6 1032.66 176C1029.46 174.4 1025.66 173.6 1021.26 173.6H1018.66V165.2H1068.86V173.6H1066.26C1061.73 173.6 1057.86 174.467 1054.66 176.2C1051.46 177.8 1049.86 181.733 1049.86 188V308H1035.66L960.659 192.8V285.2C960.659 291.467 962.259 295.467 965.459 297.2C968.659 298.8 972.526 299.6 977.059 299.6H979.659V308H929.459ZM1106.2 308V299.6H1110.8C1115.2 299.6 1119 298.867 1122.2 297.4C1125.53 295.8 1127.2 292.067 1127.2 286.2V248.4L1090.2 184.2C1088.07 180.333 1086 177.6 1084 176C1082.13 174.4 1079.47 173.6 1076 173.6H1073.4V165.2H1128.4V173.6H1121C1117.4 173.6 1115 174.267 1113.8 175.6C1112.73 176.8 1112.2 178.267 1112.2 180C1112.2 181.867 1112.6 183.733 1113.4 185.6C1114.2 187.467 1115 189.133 1115.8 190.6L1130.6 217.4C1132.87 221.533 1134.8 225.6 1136.4 229.6C1138.13 233.6 1139.53 237.133 1140.6 240.2C1141.8 237.4 1143.53 233.933 1145.8 229.8C1148.07 225.667 1150.33 221.533 1152.6 217.4L1165.4 194.4C1166.73 192.133 1167.67 190 1168.2 188C1168.73 185.867 1169 184 1169 182.4C1169 176.533 1165 173.6 1157 173.6H1151.2V165.2H1200V173.6H1197.6C1194.8 173.6 1192.2 174.733 1189.8 177C1187.4 179.133 1184.47 183.2 1181 189.2L1147.4 248.4V285.2C1147.4 291.467 1149 295.467 1152.2 297.2C1155.4 298.8 1159.27 299.6 1163.8 299.6H1168.4V308H1106.2ZM1185.34 308V299.6H1189.14C1193 299.6 1195.87 298.6 1197.74 296.6C1199.74 294.6 1201.94 290.4 1204.34 284L1248.74 165.2H1264.34L1309.54 289C1311 293.133 1312.74 295.933 1314.74 297.4C1316.87 298.867 1319.87 299.6 1323.74 299.6H1326.34V308H1271.34V299.6H1275.94C1283.94 299.6 1287.94 296.4 1287.94 290C1287.94 288.933 1287.8 287.8 1287.54 286.6C1287.27 285.4 1286.87 284.067 1286.34 282.6L1278.34 260.2H1225.74L1218.14 281.2C1216.94 284.4 1216.34 287.267 1216.34 289.8C1216.34 296.333 1220.74 299.6 1229.54 299.6H1234.14V308H1185.34ZM1229.54 250.2H1274.74L1262.34 215.2C1260.2 209.333 1258.27 203.8 1256.54 198.6C1254.8 193.4 1253.4 188.4 1252.34 183.6C1251.4 188.4 1250.2 193 1248.74 197.4C1247.27 201.8 1245.4 207.133 1243.14 213.4L1229.54 250.2Z" fill="black"/>
<rect x="7.5" y="23.5001" width="345" height="345" fill="white" stroke="black" stroke-width="15"/>
<line x1="187.5" y1="16" x2="187.5" y2="196" stroke="black" stroke-width="15"/>
<line x1="180" y1="188.5" x2="360" y2="188.5" stroke="black" stroke-width="15"/>
<line x1="8.6967" y1="370.433" x2="189.433" y2="189.697" stroke="black" stroke-width="15"/>
</svg>
