<svg width="1321" height="401" viewBox="0 0 1321 401" fill="none" xmlns="http://www.w3.org/2000/svg">
<path d="M560.336 276.592C548.048 276.592 537.008 275.056 527.216 271.984C517.424 268.72 507.632 264.304 497.84 258.736C499.184 251.44 500.048 243.952 500.432 236.272C500.816 228.592 501.008 221.68 501.008 215.536C504.272 214.576 507.824 213.904 511.664 213.52C515.696 213.136 519.44 212.944 522.896 212.944C523.856 228.88 527.216 240.688 532.976 248.368C538.736 255.856 548.624 259.6 562.64 259.6C574.736 259.6 583.376 257.008 588.56 251.824C593.936 246.448 596.624 240.208 596.624 233.104C596.624 225.808 594.32 219.76 589.712 214.96C585.104 209.968 579.152 205.648 571.856 202C564.752 198.352 557.168 194.704 549.104 191.056C541.04 187.408 533.36 183.088 526.064 178.096C518.96 173.104 513.104 166.864 508.496 159.376C503.888 151.888 501.584 142.48 501.584 131.152C501.584 113.104 507.344 99.568 518.864 90.544C530.384 81.328 545.264 76.72 563.504 76.72C573.68 76.72 583.472 77.968 592.88 80.464C602.48 82.96 609.968 85.936 615.344 89.392C615.344 95.92 615.44 102.928 615.632 110.416C615.824 117.904 616.304 124.144 617.072 129.136C614.192 130.672 610.64 131.728 606.416 132.304C602.384 132.88 598.736 133.168 595.472 133.168C593.552 122.224 591.056 113.872 587.984 108.112C584.912 102.352 581.168 98.416 576.752 96.304C572.528 94 567.632 92.848 562.064 92.848C553.232 92.848 546.128 94.96 540.752 99.184C535.568 103.408 532.976 109.456 532.976 117.328C532.976 125.008 535.28 131.44 539.888 136.624C544.496 141.616 550.448 146.032 557.744 149.872C565.232 153.52 573.104 157.264 581.36 161.104C589.616 164.944 597.392 169.36 604.688 174.352C612.176 179.152 618.224 185.2 622.832 192.496C627.632 199.792 630.032 208.912 630.032 219.856C630.032 230.416 627.44 240.016 622.256 248.656C617.264 257.104 609.584 263.92 599.216 269.104C589.04 274.096 576.08 276.592 560.336 276.592ZM651.631 274.6C651.631 272.6 651.698 270.667 651.831 268.8C652.098 266.8 652.431 265.133 652.831 263.8C658.165 263.4 661.765 262 663.631 259.6C665.498 257.2 666.431 252.267 666.431 244.8V168C666.431 162.933 666.031 159.133 665.231 156.6C664.431 153.933 663.031 152.133 661.031 151.2C659.165 150.133 656.431 149.4 652.831 149C652.431 147.667 652.098 146.067 651.831 144.2C651.698 142.2 651.631 140.2 651.631 138.2C655.098 138.333 659.498 138.467 664.831 138.6C670.165 138.733 675.031 138.8 679.431 138.8C683.965 138.8 688.631 138.733 693.431 138.6C698.365 138.467 702.831 138.333 706.831 138.2C706.831 140.333 706.765 142.267 706.631 144C706.498 145.733 706.098 147.4 705.431 149C700.098 149.4 696.498 150.8 694.631 153.2C692.898 155.6 692.031 160.533 692.031 168V199H745.831V168C745.831 162.933 745.431 159.133 744.631 156.6C743.965 153.933 742.631 152.133 740.631 151.2C738.631 150.133 735.831 149.4 732.231 149C731.831 147.667 731.498 146.067 731.231 144.2C731.098 142.2 731.031 140.2 731.031 138.2C734.631 138.333 739.031 138.467 744.231 138.6C749.565 138.733 754.498 138.8 759.031 138.8C763.431 138.8 768.031 138.733 772.831 138.6C777.765 138.467 782.231 138.333 786.231 138.2C786.231 140.333 786.165 142.267 786.031 144C785.898 145.733 785.565 147.4 785.031 149C779.698 149.4 776.098 150.8 774.231 153.2C772.365 155.6 771.431 160.533 771.431 168V244.8C771.431 252.267 772.365 257.2 774.231 259.6C776.098 262 779.698 263.4 785.031 263.8C785.431 265.133 785.698 266.8 785.831 268.8C786.098 270.667 786.231 272.6 786.231 274.6C782.631 274.333 778.498 274.133 773.831 274C769.165 274 764.431 274 759.631 274C754.698 274 749.631 274 744.431 274C739.365 274.133 734.898 274.333 731.031 274.6C731.031 272.6 731.098 270.667 731.231 268.8C731.498 266.8 731.898 265.133 732.431 263.8C737.765 263.4 741.298 262 743.031 259.6C744.898 257.2 745.831 252.267 745.831 244.8V210C741.031 210 735.298 210.067 728.631 210.2C721.965 210.2 715.298 210.267 708.631 210.4C702.098 210.533 696.565 210.867 692.031 211.4V244.8C692.031 252.267 692.965 257.2 694.831 259.6C696.698 262 700.298 263.4 705.631 263.8C706.031 265.133 706.298 266.8 706.431 268.8C706.698 270.667 706.831 272.6 706.831 274.6C703.098 274.333 698.898 274.133 694.231 274C689.698 274 685.031 274 680.231 274C675.298 274 670.231 274 665.031 274C659.831 274.133 655.365 274.333 651.631 274.6ZM899.742 237.2C905.609 238.267 909.809 240.067 912.342 242.6C910.876 247.267 909.609 252.467 908.542 258.2C907.476 263.8 906.676 269.2 906.142 274.4C901.609 274.267 895.076 274.133 886.542 274C878.142 274 869.409 274 860.342 274C856.609 274 852.142 274 846.942 274C841.742 274 836.409 274 830.942 274C825.476 274.133 820.409 274.2 815.742 274.2C811.209 274.333 807.742 274.467 805.342 274.6C805.342 272.467 805.409 270.467 805.542 268.6C805.676 266.733 806.009 265.133 806.542 263.8C810.142 263.533 812.876 262.867 814.742 261.8C816.742 260.6 818.142 258.6 818.942 255.8C819.742 252.867 820.142 248.667 820.142 243.2V168C820.142 162.933 819.742 159.133 818.942 156.6C818.142 153.933 816.742 152.133 814.742 151.2C812.742 150.133 809.942 149.4 806.342 149C805.942 147.667 805.676 146 805.542 144C805.409 141.867 805.342 139.933 805.342 138.2C808.409 138.333 812.476 138.467 817.542 138.6C822.742 138.6 827.876 138.667 832.942 138.8C838.142 138.8 842.342 138.8 845.542 138.8C860.876 138.8 872.942 138.733 881.742 138.6C890.542 138.467 896.942 138.333 900.942 138.2C901.209 141.267 901.476 144.8 901.742 148.8C902.142 152.8 902.609 156.8 903.142 160.8C903.809 164.667 904.476 168.067 905.142 171C902.076 172.867 897.876 173.8 892.542 173.8C892.009 169.533 890.809 165.533 888.942 161.8C887.209 157.933 884.142 154.867 879.742 152.6C875.476 150.2 869.409 149 861.542 149H845.742V200.8H854.342C861.942 200.8 867.142 199.733 869.942 197.6C872.876 195.467 874.409 191.333 874.542 185.2C876.409 184.667 878.342 184.267 880.342 184C882.476 183.733 884.609 183.6 886.742 183.6C886.609 186.933 886.476 190.467 886.342 194.2C886.209 197.933 886.142 201.8 886.142 205.8C886.142 210.067 886.209 214.267 886.342 218.4C886.476 222.4 886.609 226 886.742 229.2C884.342 229.2 882.209 229.133 880.342 229C878.476 228.867 876.676 228.533 874.942 228C874.409 221.467 872.676 217.067 869.742 214.8C866.942 212.533 861.809 211.4 854.342 211.4H845.742V243C845.742 250.867 846.876 256.2 849.142 259C851.409 261.667 856.076 263 863.142 263H864.942C872.942 263 879.076 262.067 883.342 260.2C887.742 258.333 891.076 255.467 893.342 251.6C895.742 247.733 897.876 242.933 899.742 237.2ZM927.584 274.6C927.584 272.467 927.651 270.533 927.784 268.8C927.918 266.933 928.251 265.267 928.784 263.8C932.518 263.667 935.451 262.733 937.584 261C939.718 259.267 941.184 256.333 941.984 252.2C942.918 248.067 943.384 242.2 943.384 234.6V157L941.784 155C940.184 152.867 938.518 151.467 936.784 150.8C935.051 150 932.384 149.4 928.784 149C928.251 147.4 927.918 145.667 927.784 143.8C927.651 141.8 927.584 139.933 927.584 138.2C929.718 138.333 932.651 138.467 936.384 138.6C940.118 138.733 943.384 138.8 946.184 138.8C948.851 138.8 951.718 138.8 954.784 138.8C957.851 138.667 960.451 138.467 962.584 138.2L1032.98 232.6V177.6C1032.98 170.133 1032.58 164.4 1031.78 160.4C1030.98 156.267 1029.52 153.4 1027.38 151.8C1025.25 150.2 1022.18 149.267 1018.18 149C1017.65 146.733 1017.32 144.8 1017.18 143.2C1017.05 141.467 1016.98 139.8 1016.98 138.2C1019.92 138.333 1023.45 138.467 1027.58 138.6C1031.72 138.733 1035.25 138.8 1038.18 138.8C1041.12 138.8 1044.45 138.733 1048.18 138.6C1052.05 138.467 1055.32 138.333 1057.98 138.2C1057.98 139.933 1057.92 141.733 1057.78 143.6C1057.65 145.467 1057.32 147.267 1056.78 149C1053.72 149.133 1051.25 150.067 1049.38 151.8C1047.65 153.4 1046.45 156.267 1045.78 160.4C1045.12 164.4 1044.78 170.133 1044.78 177.6V274C1043.18 274.533 1041.32 274.867 1039.18 275C1037.18 275.267 1035.12 275.4 1032.98 275.4L954.984 172.4V234.6C954.984 242.2 955.384 248.067 956.184 252.2C956.984 256.333 958.451 259.267 960.584 261C962.718 262.733 965.718 263.667 969.584 263.8C969.984 265.267 970.251 266.933 970.384 268.8C970.518 270.533 970.584 272.467 970.584 274.6C967.651 274.333 964.118 274.133 959.984 274C955.984 274 952.451 274 949.384 274C946.318 274 942.518 274 937.984 274C933.451 274.133 929.984 274.333 927.584 274.6ZM1159.07 263.8C1159.6 265.533 1159.94 267.267 1160.07 269C1160.34 270.6 1160.47 272.467 1160.47 274.6C1155.67 274.467 1150.54 274.333 1145.07 274.2C1139.6 274.067 1134.4 274 1129.47 274C1124.14 274 1118.4 274.067 1112.27 274.2C1106.14 274.333 1101.14 274.4 1097.27 274.4C1097.27 272.533 1097.4 270.667 1097.67 268.8C1097.94 266.933 1098.34 265.267 1098.87 263.8C1104.2 263.4 1108.07 262.667 1110.47 261.6C1113 260.533 1114.67 258.467 1115.47 255.4C1116.27 252.2 1116.67 247.333 1116.67 240.8V223L1085.07 160.8C1082.94 156.533 1080.8 153.533 1078.67 151.8C1076.67 150.067 1074.07 149.133 1070.87 149C1070.34 147.267 1069.94 145.6 1069.67 144C1069.54 142.267 1069.47 140.4 1069.47 138.4C1072.94 138.533 1077 138.667 1081.67 138.8C1086.34 138.8 1090.6 138.8 1094.47 138.8C1097 138.8 1100.07 138.8 1103.67 138.8C1107.4 138.8 1111.07 138.8 1114.67 138.8C1118.27 138.667 1121.2 138.533 1123.47 138.4C1123.47 140.533 1123.34 142.4 1123.07 144C1122.94 145.467 1122.67 147 1122.27 148.6C1117.47 149.133 1114.74 150.667 1114.07 153.2C1113.54 155.733 1114.6 159.733 1117.27 165.2C1120.2 171.067 1123.47 177.867 1127.07 185.6C1130.67 193.333 1134.2 201.333 1137.67 209.6C1141.4 201.2 1144.87 193.4 1148.07 186.2C1151.4 179 1154.47 172.533 1157.27 166.8C1160.2 160.667 1161.2 156.333 1160.27 153.8C1159.34 151.133 1156.47 149.533 1151.67 149C1151.14 147.267 1150.74 145.6 1150.47 144C1150.2 142.4 1150.07 140.533 1150.07 138.4C1152.87 138.533 1156.07 138.667 1159.67 138.8C1163.27 138.8 1166.74 138.8 1170.07 138.8C1173 138.8 1176 138.8 1179.07 138.8C1182.27 138.667 1185.14 138.533 1187.67 138.4C1187.67 140.4 1187.54 142.267 1187.27 144C1187.14 145.6 1186.94 147.133 1186.67 148.6C1183.34 149.533 1180.27 151.467 1177.47 154.4C1174.67 157.2 1171.67 162 1168.47 168.8L1142.27 223.2V239.2C1142.27 246.133 1142.6 251.267 1143.27 254.6C1144.07 257.8 1145.67 260 1148.07 261.2C1150.47 262.4 1154.14 263.267 1159.07 263.8ZM1252.35 137.6L1298.95 243C1301.35 248.6 1303.35 252.867 1304.95 255.8C1306.68 258.6 1308.28 260.6 1309.75 261.8C1311.22 262.867 1312.95 263.533 1314.95 263.8C1315.88 266.733 1316.35 270.333 1316.35 274.6C1314.62 274.467 1312.08 274.333 1308.75 274.2C1305.55 274.2 1302.28 274.133 1298.95 274C1295.62 274 1292.88 274 1290.75 274C1288.62 274 1285.75 274 1282.15 274C1278.68 274.133 1275.22 274.2 1271.75 274.2C1268.42 274.333 1265.88 274.467 1264.15 274.6C1264.15 272.333 1264.22 270.333 1264.35 268.6C1264.62 266.867 1265.02 265.267 1265.55 263.8C1270.75 263 1273.82 261.6 1274.75 259.6C1275.68 257.6 1274.95 253.8 1272.55 248.2L1266.15 233.4C1258.02 233.4 1249.55 233.533 1240.75 233.8C1231.95 233.933 1223.55 234.2 1215.55 234.6L1211.75 244.2C1209.35 250.6 1208.68 255.333 1209.75 258.4C1210.95 261.467 1214.08 263.267 1219.15 263.8C1220.08 266.733 1220.55 270.333 1220.55 274.6C1218.28 274.333 1215.15 274.133 1211.15 274C1207.15 274 1203.48 274 1200.15 274C1196.95 274 1193.75 274.067 1190.55 274.2C1187.35 274.333 1184.75 274.467 1182.75 274.6C1182.75 272.733 1182.88 270.933 1183.15 269.2C1183.42 267.333 1183.82 265.533 1184.35 263.8C1186.62 263.4 1188.55 262.533 1190.15 261.2C1191.75 259.867 1193.28 257.8 1194.75 255C1196.35 252.067 1198.22 248 1200.35 242.8L1242.15 138.6C1243.88 138.2 1245.48 137.933 1246.95 137.8C1248.42 137.667 1250.22 137.6 1252.35 137.6ZM1231.35 193.4L1219.95 223.2H1261.75L1248.95 193.6C1246.95 189.067 1245.22 184.933 1243.75 181.2C1242.42 177.467 1241.08 173.533 1239.75 169.4C1237.22 177.8 1234.42 185.8 1231.35 193.4Z" fill="black"/>
<rect x="7.5" y="28.5001" width="345" height="345" fill="white" stroke="black" stroke-width="15"/>
<line x1="187.5" y1="21" x2="187.5" y2="201" stroke="black" stroke-width="15"/>
<line x1="180" y1="193.5" x2="360" y2="193.5" stroke="black" stroke-width="15"/>
<line x1="8.6967" y1="375.433" x2="189.433" y2="194.697" stroke="black" stroke-width="15"/>
</svg>
