<svg width="942" height="360" viewBox="0 0 942 360" fill="none" xmlns="http://www.w3.org/2000/svg">
<path d="M677.27 108.8C675.66 117.08 673.13 128.35 671.98 134.56L674.97 136.17C680.49 129.96 689.92 118.23 694.98 111.56C699.12 111.33 701.88 111.1 703.49 109.49L686.01 92.24L676.12 102.13H576.99C576.53 98.45 575.84 94.31 574.69 89.94H571.01C570.32 107.42 565.26 117.77 557.44 122.37C544.79 138.93 578.83 148.36 577.45 108.8H677.27ZM639.09 124.21C651.97 136.86 668.99 158.25 674.05 173.89C691.3 184.47 700.27 149.05 641.62 122.37L639.09 124.21ZM562.27 182.17C579.06 170.9 596.77 153.19 611.03 134.33C615.86 135.48 619.08 133.87 620.46 131.8L600.68 119.38C588.72 142.38 572.16 165.61 559.05 179.41L562.27 182.17ZM508.22 91.32C518.11 97.99 530.3 110.64 533.75 120.99C550.31 131.34 560.66 97.99 510.29 89.02L508.22 91.32ZM491.43 142.84C501.09 149.05 512.13 160.32 515.35 169.98C531.68 179.64 541.57 146.98 493.73 140.77L491.43 142.84ZM548.7 135.25C514.2 220.12 514.2 220.12 510.29 227.71C507.99 232.54 507.3 232.54 504.54 232.54H494.65V237.6C499.71 238.06 502.47 238.52 505.69 240.82C510.52 244.04 511.9 262.44 508.68 285.67C509.14 293.03 511.9 297.17 516.27 297.17C523.63 297.17 528.46 291.19 528.92 281.3C529.84 262.67 523.17 251.86 522.94 241.74C522.71 235.99 524.09 229.09 525.93 222.19C528.69 211.84 544.79 162.62 553.07 136.17L548.7 135.25ZM694.52 198.5C697.51 198.5 699.58 197.35 700.27 194.82C692.91 187.69 680.49 178.03 680.49 178.03L669.91 191.83H631.96V161.93C637.71 161.24 639.78 158.94 640.01 155.95L617.24 153.19V191.83H551.46L553.3 198.5H607.12C592.86 229.78 569.17 260.6 539.73 281.99L542.26 285.21C574.23 267.27 600.22 242.66 617.24 213.45V297.63H620.23C625.52 297.63 631.96 293.95 631.96 292.11V202.64C645.53 236.45 667.84 263.82 691.99 280.15C694.29 272.56 699.58 267.96 705.79 267.04L706.25 264.74C680.03 252.55 651.28 227.25 635.41 198.5H694.52ZM858.28 87.41C865.87 95.92 873.92 110.18 874.15 121.91C887.72 133.87 902.44 103.51 861.04 85.8L858.28 87.41ZM840.11 230.47H870.24V274.4H840.11V230.47ZM870.24 138.93V176.42H840.11V138.93H870.24ZM870.24 223.57H840.11V183.32H870.24V223.57ZM906.81 274.4H884.5V230.47H921.76C924.98 230.47 927.05 229.32 927.74 226.79C921.3 220.35 911.18 212.3 911.18 212.3L902.21 223.57H884.5V183.32H920.38C923.6 183.32 925.9 182.17 926.59 179.64C919.92 173.2 910.03 165.15 910.03 165.15L900.83 176.42H884.5V138.93H924.29C927.51 138.93 929.81 137.78 930.5 135.25C923.83 128.58 913.02 120.3 913.02 120.3L903.82 132.03H843.1L840.57 130.88C845.4 118.46 849.31 106.27 852.07 96.15C857.82 96.38 859.89 95 861.04 92.01L836.66 85.34C832.98 109.72 824.47 144.45 812.05 172.97C805.84 167.22 797.79 160.32 797.79 160.32L792.5 167.22V112.71H816.19C818.95 112.71 821.25 111.56 821.71 109.03C815.5 102.36 804.46 93.62 804.46 93.62L795.26 105.81H723.04L724.88 112.71H778.47V171.59H746.04C749.26 159.86 752.71 143.76 754.55 132.95C760.07 133.64 762.6 131.34 763.75 128.58L742.82 122.37C740.98 133.41 736.38 154.8 732.93 168.83C729.71 169.98 725.8 171.59 723.27 173.2L738.91 186.08L746.5 178.49H770.42C760.07 210.69 742.13 243.12 718.9 267.04L721.89 270.03C746.04 251.17 765.36 226.56 778.47 199.19V273.94C778.47 277.62 777.32 279.23 772.95 279.23C768.35 279.23 746.04 277.16 746.04 277.16V280.84C756.16 281.99 761.68 284.06 765.13 286.59C768.12 288.66 769.27 293.03 769.5 297.4C789.97 295.1 792.5 286.59 792.5 274.86V178.49H808.14C808.6 178.49 809.29 178.49 809.75 178.49C807.45 183.32 804.92 187.92 802.39 192.29L805.38 194.59C813.43 185.16 820.1 174.12 826.31 162.62V296.94H828.38C835.28 296.94 840.11 293.26 840.11 292.11V281.07H927.97C930.96 281.07 932.8 279.92 933.49 277.39C927.05 270.95 916.24 262.44 916.24 262.44L906.81 274.4Z" fill="black"/>
<rect x="7.5" y="7.50006" width="345" height="345" fill="white" stroke="black" stroke-width="15"/>
<line x1="187.5" x2="187.5" y2="180" stroke="black" stroke-width="15"/>
<line x1="180" y1="172.5" x2="360" y2="172.5" stroke="black" stroke-width="15"/>
<line x1="8.6967" y1="354.433" x2="189.433" y2="173.697" stroke="black" stroke-width="15"/>
</svg>
