<svg id="regular" enable-background="new 0 0 24 24" height="512" viewBox="0 0 24 24" width="512" xmlns="http://www.w3.org/2000/svg"><path d="m3.698 20.659c6.854 3.788 17.63.314 18.304-5.057.318-2.537-1.09-3.411-3.108-4.388.248-.888.363-2.061-.354-2.877-1.302-1.479-3.505-.811-5.285-.34.397-3.474-3.819-5.153-9.456.363-4.545 4.445-5.573 9.274-.101 12.299zm1.15-11.227c2.333-2.283 4.421-3.119 5.651-3.119 1.403 0 1.497 1.09 1.056 2.409-.174.515.246 1.027.76.987.473-.031 1.041-.185 1.644-.348 2.758-.745 4.366-.715 3.32 1.958-.292.744.479 1.014 1.15 1.335 7.226 3.458-5.525 11.377-14.005 6.692-4.585-2.534-3.336-6.236.424-9.914z"/><path d="m9.836 20.09c2.805-.448 4.798-2.691 4.442-5-.383-2.5-3.139-3.799-5.738-3.384-2.805.448-4.797 2.691-4.442 5 .383 2.5 3.141 3.799 5.738 3.384zm-1.06-6.902c1.763-.282 3.77.5 4.02 2.13.229 1.497-1.204 2.973-3.196 3.291-1.744.277-3.768-.492-4.02-2.129-.229-1.497 1.204-2.974 3.196-3.292z"/><path d="m16.925 6.928c1.395-.042 2.601.53 2.52 2.038-.022.414.295.768.708.79.014 0 .028.001.042.001.396 0 .727-.31.748-.709.133-2.466-1.898-3.764-4.087-3.618-.412.02-.73.37-.712.782.017.413.416.727.781.716z"/><path d="m16.282 2.276c-.41.06-.694.44-.635.85.06.411.45.695.85.635 3.984-.465 7.087 3.105 5.715 6.812-.149.386.043.82.429.97.384.148.82-.041.97-.43 1.886-4.879-2.504-9.575-7.329-8.837z"/></svg>